<svg width="20" height="20" viewBox="0 0 20 20" fill="none" xmlns="http://www.w3.org/2000/svg">
<g id="3 dot">
<g id="Group 6">
<g id="Vector">
<path d="M10.4167 6.66667C11.5673 6.66667 12.5 5.73393 12.5 4.58333C12.5 3.43274 11.5673 2.5 10.4167 2.5C9.26607 2.5 8.33333 3.43274 8.33333 4.58333C8.33333 5.73393 9.26607 6.66667 10.4167 6.66667Z" fill="#1C4980"/>
<path d="M10.4167 12.5C11.5673 12.5 12.5 11.5673 12.5 10.4167C12.5 9.26607 11.5673 8.33333 10.4167 8.33333C9.26607 8.33333 8.33333 9.26607 8.33333 10.4167C8.33333 11.5673 9.26607 12.5 10.4167 12.5Z" fill="#1C4980"/>
<path d="M10.4167 18.3333C11.5673 18.3333 12.5 17.4006 12.5 16.25C12.5 15.0994 11.5673 14.1667 10.4167 14.1667C9.26607 14.1667 8.33333 15.0994 8.33333 16.25C8.33333 17.4006 9.26607 18.3333 10.4167 18.3333Z" fill="#1C4980"/>
</g>
</g>
</g>
</svg>
